# Blender 4.2.3 LTS
# www.blender.org
mtllib arbol 1.mtl
o 3_Cylinder.015
v 9.745808 -0.047883 -0.069458
v 9.507323 5.273168 -0.020854
v 9.695101 -0.047883 0.191876
v 9.492099 5.273168 0.057610
v 9.474455 -0.047883 0.340811
v 9.425851 5.273168 0.102327
v 9.213121 -0.047883 0.290104
v 9.347387 5.273168 0.087102
v 9.064186 -0.047883 0.069458
v 9.302670 5.273168 0.020854
v 9.114893 -0.047883 -0.191876
v 9.317895 5.273168 -0.057610
v 9.335539 -0.047883 -0.340811
v 9.384143 5.273168 -0.102327
v 9.596872 -0.047883 -0.290104
v 9.462606 5.273168 -0.087102
v 9.423377 3.547161 0.092315
v 8.053061 5.059781 0.228860
v 9.347925 3.483656 0.065376
v 8.030408 5.040714 0.220772
v 9.303647 3.457352 -0.022935
v 8.017114 5.032816 0.194257
v 9.316480 3.483656 -0.120888
v 8.020967 5.040714 0.164847
v 9.378907 3.547161 -0.171103
v 8.039709 5.059781 0.149770
v 9.454358 3.610665 -0.144165
v 8.062364 5.078848 0.157859
v 9.498636 3.636969 -0.055853
v 8.075658 5.086745 0.184374
v 9.485804 3.610665 0.042100
v 8.071805 5.078848 0.213783
v 9.416845 3.321547 0.188151
v 11.155092 5.415727 -0.145512
v 9.314517 3.403152 0.147552
v 11.124369 5.440228 -0.157702
v 9.259701 3.436954 0.026592
v 11.107910 5.450377 -0.194019
v 9.284506 3.403152 -0.103871
v 11.115358 5.440228 -0.233190
v 9.374403 3.321547 -0.167415
v 11.142349 5.415727 -0.252269
v 9.476731 3.239942 -0.126816
v 11.173073 5.391225 -0.240079
v 9.531548 3.206140 -0.005857
v 11.189531 5.381076 -0.203762
v 9.506742 3.239942 0.124607
v 11.182083 5.391225 -0.164591
v 9.404997 4.188754 -0.000000
v 8.327489 5.594617 2.097748
v 6.926522 5.594616 -0.212259
v 8.950736 5.594627 -2.228939
v 11.602728 5.594616 -1.165277
v 11.217516 5.594617 1.508756
v 7.207266 7.869408 1.165275
v 7.592478 7.869407 -1.508757
v 10.482505 7.869407 -2.097749
v 11.883471 7.869408 0.212258
v 9.859258 7.869396 2.228938
v 9.404997 9.275270 -0.000001
v 7.948197 4.568578 -0.124762
v 8.771658 4.568579 1.233016
v 7.314845 5.394925 1.108262
v 9.837024 5.394930 2.119841
v 10.470362 4.568579 0.886818
v 9.137989 4.568585 -1.310135
v 7.681183 5.394929 -1.434906
v 10.696781 4.568578 -0.684927
v 10.429776 5.394929 -1.995073
v 11.762159 5.394925 0.201893
v 9.038665 6.732012 2.543164
v 10.737374 6.732012 2.196965
v 6.656388 6.732012 0.560169
v 7.479850 6.732012 1.917966
v 8.072619 6.732012 -2.196966
v 6.882802 6.732012 -1.011593
v 11.330144 6.732012 -1.917967
v 9.771329 6.732012 -2.543165
v 11.927193 6.732012 1.011593
v 12.153606 6.732012 -0.560171
v 8.380218 8.069095 1.995072
v 7.047834 8.069098 -0.201894
v 8.972970 8.069094 -2.119842
v 11.495149 8.069098 -1.108263
v 11.128811 8.069095 1.434905
v 8.113213 8.895445 0.684926
v 9.672005 8.895438 1.310134
v 8.339632 8.895445 -0.886819
v 10.038336 8.895445 -1.233017
v 10.861796 8.895445 0.124761
vn 0.9808 0.0422 0.1903
vn 0.5590 0.0422 0.8281
vn -0.1903 0.0422 0.9808
vn -0.8281 0.0422 0.5590
vn -0.9808 0.0422 -0.1903
vn -0.5590 0.0422 -0.8281
vn -0.0000 1.0000 -0.0000
vn 0.1903 0.0422 -0.9808
vn 0.8281 0.0422 -0.5590
vn -0.0000 -1.0000 -0.0000
vn -0.1534 -0.2258 0.9620
vn -0.6381 -0.5894 0.4955
vn -0.7654 -0.5894 -0.2585
vn -0.4607 -0.2258 -0.8583
vn 0.0974 0.2883 -0.9526
vn 0.5821 0.6519 -0.4860
vn -0.6630 0.7402 0.1119
vn 0.7094 0.6519 0.2680
vn 0.4047 0.2883 0.8678
vn 0.6630 -0.7402 -0.1119
vn -0.1538 0.2787 0.9480
vn -0.6284 0.6273 0.4601
vn -0.7190 0.6273 -0.2992
vn -0.3726 0.2787 -0.8851
vn 0.2079 -0.2142 -0.9544
vn 0.6825 -0.5627 -0.4665
vn 0.6400 0.7645 -0.0764
vn 0.7731 -0.5627 0.2928
vn 0.4267 -0.2142 0.8787
vn -0.6400 -0.7645 0.0764
vn -0.2618 -0.9520 0.1588
vn -0.0989 -0.6660 0.7394
vn -0.2273 -0.9467 -0.2281
vn 0.1199 -0.9467 -0.2989
vn 0.3031 -0.9520 0.0437
vn -0.0578 -0.3325 0.9413
vn -0.9083 -0.3601 0.2127
vn -0.4617 -0.3333 -0.8220
vn 0.5802 -0.3482 -0.7363
vn 0.8446 -0.3498 0.4054
vn -0.3691 -0.1296 0.9203
vn -0.9805 -0.1369 -0.1412
vn -0.1981 -0.1256 -0.9721
vn 0.8470 -0.1369 -0.5137
vn 0.6998 -0.1296 0.7025
vn -0.4943 0.6863 0.5336
vn -0.6316 0.6827 -0.3675
vn 0.0989 0.6660 -0.7394
vn 0.7092 0.6974 -0.1031
vn 0.3187 0.6639 0.6765
vn 0.2273 0.9467 0.2281
vn 0.4199 0.8038 0.4214
vn 0.6637 0.6863 0.2976
vn 0.2618 0.9520 -0.1588
vn 0.4902 0.8193 -0.2973
vn 0.4374 0.6827 -0.5854
vn -0.0662 0.9435 -0.3246
vn -0.1212 0.7947 -0.5948
vn -0.3804 0.6660 -0.6417
vn -0.3031 0.9520 -0.0437
vn -0.5675 0.8193 -0.0817
vn -0.6930 0.6974 0.1827
vn -0.1199 0.9467 0.2989
vn -0.2214 0.8038 0.5521
vn -0.0285 0.6639 0.7472
vn 0.4617 0.3333 0.8220
vn 0.6925 0.1934 0.6951
vn 0.8221 0.3482 0.4505
vn 0.9083 0.3601 -0.2126
vn 0.8370 0.2041 -0.5076
vn 0.6185 0.3498 -0.7036
vn 0.0578 0.3325 -0.9413
vn -0.1962 0.1876 -0.9625
vn -0.4215 0.3325 -0.8436
vn -0.8446 0.3498 -0.4054
vn -0.9689 0.2041 -0.1396
vn -0.9191 0.3601 0.1598
vn -0.5802 0.3482 0.7363
vn -0.3652 0.1934 0.9106
vn -0.1032 0.3333 0.9371
vn 0.9805 0.1369 0.1412
vn 0.9689 -0.2041 0.1396
vn 0.9191 -0.3601 -0.1598
vn 0.3691 0.1296 -0.9203
vn 0.3652 -0.1934 -0.9106
vn 0.1032 -0.3333 -0.9371
vn -0.6998 0.1296 -0.7025
vn -0.6925 -0.1934 -0.6951
vn -0.8221 -0.3482 -0.4505
vn -0.8470 0.1369 0.5137
vn -0.8370 -0.2041 0.5076
vn -0.6185 -0.3498 0.7036
vn 0.1981 0.1256 0.9721
vn 0.1962 -0.1876 0.9625
vn 0.4215 -0.3325 0.8436
vn 0.6316 -0.6827 0.3675
vn 0.5675 -0.8193 0.0817
vn 0.6930 -0.6974 -0.1827
vn 0.4943 -0.6863 -0.5336
vn 0.2214 -0.8038 -0.5521
vn 0.0285 -0.6639 -0.7472
vn -0.3187 -0.6639 -0.6765
vn -0.4199 -0.8038 -0.4214
vn -0.6637 -0.6863 -0.2976
vn 0.3804 -0.6660 0.6417
vn 0.1212 -0.7947 0.5948
vn 0.0662 -0.9435 0.3246
vn -0.7092 -0.6974 0.1031
vn -0.4902 -0.8193 0.2973
vn -0.4374 -0.6827 0.5854
vt 1.000000 0.500000
vt 1.000000 1.000000
vt 0.875000 1.000000
vt 0.875000 0.500000
vt 0.750000 1.000000
vt 0.750000 0.500000
vt 0.625000 1.000000
vt 0.625000 0.500000
vt 0.500000 1.000000
vt 0.500000 0.500000
vt 0.375000 1.000000
vt 0.375000 0.500000
vt 0.250000 1.000000
vt 0.250000 0.500000
vt 0.419706 0.419706
vt 0.250000 0.490000
vt 0.080294 0.419706
vt 0.010000 0.250000
vt 0.080294 0.080294
vt 0.250000 0.010000
vt 0.419706 0.080294
vt 0.490000 0.250000
vt 0.125000 1.000000
vt 0.125000 0.500000
vt 0.000000 1.000000
vt 0.000000 0.500000
vt 0.750000 0.490000
vt 0.919706 0.419706
vt 0.990000 0.250000
vt 0.919706 0.080294
vt 0.750000 0.010000
vt 0.580294 0.080294
vt 0.510000 0.250000
vt 0.580294 0.419706
vt 0.818181 0.000000
vt 0.772726 0.078731
vt 0.863635 0.078731
vt 0.727272 0.157461
vt 0.681818 0.078731
vt 0.636363 0.157461
vt 0.090909 0.000000
vt 0.045454 0.078731
vt 0.136363 0.078731
vt 0.272727 0.000000
vt 0.227273 0.078731
vt 0.318182 0.078731
vt 0.454545 0.000000
vt 0.409090 0.078731
vt 0.500000 0.078731
vt 0.681818 0.236191
vt 0.909090 0.157461
vt 0.818181 0.157461
vt 0.863635 0.236191
vt 0.181818 0.157461
vt 0.090909 0.157461
vt 0.136363 0.236191
vt 0.363636 0.157461
vt 0.272727 0.157461
vt 0.318182 0.236191
vt 0.545454 0.157461
vt 0.454545 0.157461
vt 0.500000 0.236191
vt 0.772726 0.236191
vt 0.954545 0.236191
vt 0.227273 0.236191
vt 0.409090 0.236191
vt 0.590909 0.236191
vt 0.818181 0.314921
vt 0.727272 0.314921
vt 0.772726 0.393651
vt 1.000000 0.314921
vt 0.909091 0.314921
vt 0.954545 0.393651
vt 0.272727 0.314921
vt 0.181818 0.314921
vt 0.227273 0.393651
vt 0.454545 0.314921
vt 0.363636 0.314921
vt 0.409090 0.393651
vt 0.636363 0.314921
vt 0.545454 0.314921
vt 0.590909 0.393651
vt 0.500000 0.393651
vt 0.545454 0.472382
vt 0.318182 0.393651
vt 0.363636 0.472382
vt 0.136363 0.393651
vt 0.181818 0.472382
vt 0.090909 0.314921
vt 0.863635 0.393651
vt 0.909090 0.472382
vt 0.681818 0.393651
vt 0.727272 0.472382
vt 0.045454 0.236191
vt 0.000000 0.157461
vt 0.590909 0.078731
vt 0.636363 0.000000
s 0
usemtl Material.037
f 1/1/1 2/2/1 4/3/1 3/4/1
f 3/4/2 4/3/2 6/5/2 5/6/2
f 5/6/3 6/5/3 8/7/3 7/8/3
f 7/8/4 8/7/4 10/9/4 9/10/4
f 9/10/5 10/9/5 12/11/5 11/12/5
f 11/12/6 12/11/6 14/13/6 13/14/6
f 4/15/7 2/16/7 16/17/7 14/18/7 12/19/7 10/20/7 8/21/7 6/22/7
f 13/14/8 14/13/8 16/23/8 15/24/8
f 15/24/9 16/23/9 2/25/9 1/26/9
f 1/27/10 3/28/10 5/29/10 7/30/10 9/31/10 11/32/10 13/33/10 15/34/10
usemtl Material.038
f 17/1/11 18/2/11 20/3/11 19/4/11
f 19/4/12 20/3/12 22/5/12 21/6/12
f 21/6/13 22/5/13 24/7/13 23/8/13
f 23/8/14 24/7/14 26/9/14 25/10/14
f 25/10/15 26/9/15 28/11/15 27/12/15
f 27/12/16 28/11/16 30/13/16 29/14/16
f 20/15/17 18/16/17 32/17/17 30/18/17 28/19/17 26/20/17 24/21/17 22/22/17
f 29/14/18 30/13/18 32/23/18 31/24/18
f 31/24/19 32/23/19 18/25/19 17/26/19
f 17/27/20 19/28/20 21/29/20 23/30/20 25/31/20 27/32/20 29/33/20 31/34/20
usemtl Material.039
f 33/1/21 34/2/21 36/3/21 35/4/21
f 35/4/22 36/3/22 38/5/22 37/6/22
f 37/6/23 38/5/23 40/7/23 39/8/23
f 39/8/24 40/7/24 42/9/24 41/10/24
f 41/10/25 42/9/25 44/11/25 43/12/25
f 43/12/26 44/11/26 46/13/26 45/14/26
f 36/15/27 34/16/27 48/17/27 46/18/27 44/19/27 42/20/27 40/21/27 38/22/27
f 45/14/28 46/13/28 48/23/28 47/24/28
f 47/24/29 48/23/29 34/25/29 33/26/29
f 33/27/30 35/28/30 37/29/30 39/30/30 41/31/30 43/32/30 45/33/30 47/34/30
usemtl Material.040
f 49/35/31 62/36/31 61/37/31
f 50/38/32 62/39/32 64/40/32
f 49/41/33 61/42/33 66/43/33
f 49/44/34 66/45/34 68/46/34
f 49/47/35 68/48/35 65/49/35
f 50/38/36 64/40/36 71/50/36
f 51/51/37 63/52/37 73/53/37
f 52/54/38 67/55/38 75/56/38
f 53/57/39 69/58/39 77/59/39
f 54/60/40 70/61/40 79/62/40
f 50/38/41 71/50/41 74/63/41
f 51/51/42 73/53/42 76/64/42
f 52/54/43 75/56/43 78/65/43
f 53/57/44 77/59/44 80/66/44
f 54/60/45 79/62/45 72/67/45
f 55/68/46 81/69/46 86/70/46
f 56/71/47 82/72/47 88/73/47
f 57/74/48 83/75/48 89/76/48
f 58/77/49 84/78/49 90/79/49
f 59/80/50 85/81/50 87/82/50
f 87/82/51 90/83/51 60/84/51
f 87/82/52 85/81/52 90/83/52
f 85/81/53 58/77/53 90/83/53
f 90/79/54 89/85/54 60/86/54
f 90/79/55 84/78/55 89/85/55
f 84/78/56 57/74/56 89/85/56
f 89/76/57 88/87/57 60/88/57
f 89/76/58 83/75/58 88/87/58
f 83/75/59 56/89/59 88/87/59
f 88/73/60 86/90/60 60/91/60
f 88/73/61 82/72/61 86/90/61
f 82/72/62 55/68/62 86/90/62
f 86/70/63 87/92/63 60/93/63
f 86/70/64 81/69/64 87/92/64
f 81/69/65 59/80/65 87/92/65
f 72/67/66 85/81/66 59/80/66
f 72/67/67 79/62/67 85/81/67
f 79/62/68 58/77/68 85/81/68
f 80/66/69 84/78/69 58/77/69
f 80/66/70 77/59/70 84/78/70
f 77/59/71 57/74/71 84/78/71
f 78/65/72 83/75/72 57/74/72
f 78/65/73 75/56/73 83/75/73
f 75/56/74 56/89/74 83/75/74
f 76/64/75 82/72/75 56/71/75
f 76/64/76 73/53/76 82/72/76
f 73/53/77 55/68/77 82/72/77
f 74/63/78 81/69/78 55/68/78
f 74/63/79 71/50/79 81/69/79
f 71/50/80 59/80/80 81/69/80
f 79/62/81 80/66/81 58/77/81
f 79/62/82 70/61/82 80/66/82
f 70/61/83 53/57/83 80/66/83
f 77/59/84 78/65/84 57/74/84
f 77/59/85 69/58/85 78/65/85
f 69/58/86 52/54/86 78/65/86
f 75/56/87 76/94/87 56/89/87
f 75/56/88 67/55/88 76/94/88
f 67/55/89 51/95/89 76/94/89
f 73/53/90 74/63/90 55/68/90
f 73/53/91 63/52/91 74/63/91
f 63/52/92 50/38/92 74/63/92
f 71/50/93 72/67/93 59/80/93
f 71/50/94 64/40/94 72/67/94
f 64/40/95 54/60/95 72/67/95
f 65/49/96 70/61/96 54/60/96
f 65/49/97 68/48/97 70/61/97
f 68/48/98 53/57/98 70/61/98
f 68/46/99 69/58/99 53/57/99
f 68/46/100 66/45/100 69/58/100
f 66/45/101 52/54/101 69/58/101
f 66/43/102 67/55/102 52/54/102
f 66/43/103 61/42/103 67/55/103
f 61/42/104 51/95/104 67/55/104
f 64/40/105 65/96/105 54/60/105
f 64/40/106 62/39/106 65/96/106
f 62/39/107 49/97/107 65/96/107
f 61/37/108 63/52/108 51/51/108
f 61/37/109 62/36/109 63/52/109
f 62/36/110 50/38/110 63/52/110
