# Blender 4.2.3 LTS
# www.blender.org
mtllib CANCHA.mtl
o Cube
v -4.096900 0.000000 4.082124
v -4.096900 0.012826 4.082124
v -4.096900 0.000000 -12.988330
v -4.096900 0.012826 -12.988330
v 6.024249 0.000000 4.082124
v 6.024249 0.012826 4.082124
v 6.024249 0.000000 -12.988330
v 6.024249 0.012826 -12.988330
v -3.296611 0.017703 -4.051647
v -3.296611 -0.013647 -4.051647
v -3.296611 0.017703 3.336854
v -3.296611 -0.013647 3.336854
v 5.209683 0.017703 -4.051647
v 5.209683 -0.013647 -4.051647
v 5.209683 0.017703 3.336854
v 5.209683 -0.013647 3.336854
v -3.274879 0.061767 -12.326902
v -3.274879 -0.019221 -12.326902
v -3.274879 0.061767 -5.056110
v -3.274879 -0.019221 -5.056110
v 5.190147 0.061767 -12.326902
v 5.190147 -0.019221 -12.326902
v 5.190147 0.061767 -5.056110
v 5.190147 -0.019221 -5.056110
vn -1.0000 -0.0000 -0.0000
vn -0.0000 -0.0000 -1.0000
vn 1.0000 -0.0000 -0.0000
vn -0.0000 -0.0000 1.0000
vn -0.0000 -1.0000 -0.0000
vn -0.0000 1.0000 -0.0000
vt 0.375000 0.000000
vt 0.625000 0.000000
vt 0.625000 0.250000
vt 0.375000 0.250000
vt 0.625000 0.500000
vt 0.375000 0.500000
vt 0.625000 0.750000
vt 0.375000 0.750000
vt 0.625000 1.000000
vt 0.375000 1.000000
vt 0.125000 0.500000
vt 0.125000 0.750000
vt 0.875000 0.500000
vt 0.875000 0.750000
s 0
usemtl CANCHA
f 1/1/1 2/2/1 4/3/1 3/4/1
f 3/4/2 4/3/2 8/5/2 7/6/2
f 7/6/3 8/5/3 6/7/3 5/8/3
f 5/8/4 6/7/4 2/9/4 1/10/4
f 3/11/5 7/6/5 5/8/5 1/12/5
f 8/5/6 4/13/6 2/14/6 6/7/6
f 9/1/1 10/2/1 12/3/1 11/4/1
f 11/4/4 12/3/4 16/5/4 15/6/4
f 15/6/3 16/5/3 14/7/3 13/8/3
f 13/8/2 14/7/2 10/9/2 9/10/2
f 16/5/5 12/13/5 10/14/5 14/7/5
f 17/1/1 18/2/1 20/3/1 19/4/1
f 19/4/4 20/3/4 24/5/4 23/6/4
f 23/6/3 24/5/3 22/7/3 21/8/3
f 21/8/2 22/7/2 18/9/2 17/10/2
f 24/5/5 20/13/5 18/14/5 22/7/5
usemtl CANCHA2
f 11/11/6 15/6/6 13/8/6 9/12/6
f 19/11/6 23/6/6 21/8/6 17/12/6
